# xmcd
#
# Track frame offsets: 
#        150
#        15790
#        32035
#        52057
#        71422
#        91497
#        106250
#        124797
#        143922
#        171035
#        186569
#        200547
#        216697
#        239772
#
# Disc length: 3481 seconds
#
# Revision: 17
# Processed by: cddbd v1.5.2PL0 Copyright (c) Steve Scherf et al.
# Submitted via: ExactAudioCopy v0.99pb4
#
DISCID=d20d970e
DTITLE=BANDARI 班得瑞 - Heaven Blue 蓝色天际
DYEAR=2000
DGENRE=New Age
TTITLE0=Indian Dreams 印第安之梦
TTITLE1=Magic winds 魔法风
TTITLE2=Endless Horizon 无垠地平线
TTITLE3=Visions 幻觉
TTITLE4=After the rain 雨后
TTITLE5=Birds over the rainbow 飞跃彩虹
TTITLE6=Fly away 远走高飞
TTITLE7=Along in the night 走过长夜
TTITLE8=Nights of Barcelona 巴塞罗纳之夜
TTITLE9=Indian summerrain 夏雨
TTITLE10=Song of the Mayas 马雅
TTITLE11=Jupiter 木星
TTITLE12=Machu Picchu 沙漠旷野
TTITLE13=Solar winds 太阳风
EXTD=YEAR: 2000
EXTT0=
EXTT1=
EXTT2=
EXTT3=
EXTT4=
EXTT5=
EXTT6=
EXTT7=
EXTT8=
EXTT9=
EXTT10=
EXTT11=
EXTT12=
EXTT13=
PLAYORDER=
